<svg width="80" height="80" viewBox="0 0 80 80" fill="none" xmlns="http://www.w3.org/2000/svg">
<g id="Logo">
<g id="colorGroup">
<path id="innerSemircle" fill-rule="evenodd" clip-rule="evenodd" d="M37 22.2518C35.6691 22.4767 34.3646 22.8512 33.1117 23.3702C30.9278 24.2748 28.9435 25.6006 27.2721 27.2721C25.6006 28.9435 24.2748 30.9278 23.3702 33.1117C22.4656 35.2956 22 37.6362 22 40C22 42.3638 22.4656 44.7045 23.3702 46.8883C24.2748 49.0722 25.6006 51.0565 27.2721 52.7279C28.9435 54.3994 30.9278 55.7253 33.1117 56.6298C34.3646 57.1488 35.6691 57.5233 37 57.7482V22.2518Z" fill="#923092"/>
<rect id="horizontalBar" x="43" y="37" width="26" height="4" fill="#923092"/>
<path id="topArc" fill-rule="evenodd" clip-rule="evenodd" d="M43 15.6607C45.0906 15.9552 47.1403 16.5132 49.0995 17.3247C52.1429 18.5854 54.9083 20.4331 57.2376 22.7624C59.5669 25.0918 61.4146 27.8571 62.6753 30.9005C63.357 32.5463 63.8598 34.2559 64.1778 36H68.6548C68.2958 33.6745 67.6591 31.3948 66.7544 29.2109C65.2719 25.6317 63.099 22.3797 60.3596 19.6404C57.6203 16.901 54.3683 14.7281 50.7892 13.2456C48.293 12.2116 45.6718 11.5276 43 11.2084V15.6607Z" fill="#923092"/>
<path id="bottomArc" fill-rule="evenodd" clip-rule="evenodd" d="M64.3394 42C64.0448 44.0906 63.4868 46.1403 62.6753 48.0995C61.4146 51.1429 59.5669 53.9083 57.2376 56.2376C54.9083 58.5669 52.1429 60.4146 49.0995 61.6753C47.4538 62.357 45.7441 62.8598 44 63.1778V67.6548C46.3256 67.2958 48.6052 66.6591 50.7892 65.7544C54.3683 64.2719 57.6203 62.099 60.3597 59.3597C63.099 56.6203 65.2719 53.3683 66.7544 49.7892C67.7884 47.293 68.4724 44.6718 68.7916 42H64.3394Z" fill="#923092"/>
</g>
<g id="mainGroup">
<rect id="verticalBar" x="38" y="4" width="4" height="72" fill="black"/>
<path id="outerRing" d="M80 40C80 62.0914 62.0914 80 40 80C17.9086 80 0 62.0914 0 40C0 17.9086 17.9086 0 40 0C62.0914 0 80 17.9086 80 40ZM10 40C10 56.5685 23.4315 70 40 70C56.5685 70 70 56.5685 70 40C70 23.4315 56.5685 10 40 10C23.4315 10 10 23.4315 10 40Z" fill="black"/>
</g>
</g>
</svg>
