<svg width="160" height="160" viewBox="0 0 160 160" fill="none" xmlns="http://www.w3.org/2000/svg">
<g id="Logo">
<g id="colorGroup">
<path id="innerSemicircle" fill-rule="evenodd" clip-rule="evenodd" d="M77 62.2518C75.6691 62.4767 74.3646 62.8512 73.1117 63.3702C70.9278 64.2748 68.9435 65.6006 67.2721 67.2721C65.6006 68.9435 64.2748 70.9278 63.3702 73.1117C62.4656 75.2956 62 77.6362 62 80C62 82.3638 62.4656 84.7045 63.3702 86.8883C64.2748 89.0722 65.6006 91.0565 67.2721 92.7279C68.9435 94.3994 70.9278 95.7253 73.1117 96.6298C74.3646 97.1488 75.6691 97.5233 77 97.7482V62.2518Z" fill="#923092"/>
<rect id="horizontalBar" x="83" y="77" width="26" height="4" fill="#923092"/>
<path id="topArc" fill-rule="evenodd" clip-rule="evenodd" d="M83 55.6607C85.0906 55.9552 87.1403 56.5132 89.0995 57.3247C92.1429 58.5854 94.9083 60.4331 97.2376 62.7624C99.5669 65.0918 101.415 67.8571 102.675 70.9005C103.357 72.5463 103.86 74.2559 104.178 76H108.655C108.296 73.6745 107.659 71.3948 106.754 69.2109C105.272 65.6317 103.099 62.3797 100.36 59.6404C97.6203 56.901 94.3683 54.7281 90.7892 53.2456C88.293 52.2116 85.6718 51.5276 83 51.2084V55.6607Z" fill="#923092"/>
<path id="bottomArc" fill-rule="evenodd" clip-rule="evenodd" d="M104.339 82C104.045 84.0906 103.487 86.1403 102.675 88.0995C101.415 91.1429 99.5669 93.9083 97.2376 96.2376C94.9083 98.5669 92.1429 100.415 89.0995 101.675C87.4538 102.357 85.7441 102.86 84 103.178V107.655C86.3256 107.296 88.6052 106.659 90.7892 105.754C94.3683 104.272 97.6203 102.099 100.36 99.3597C103.099 96.6203 105.272 93.3683 106.754 89.7892C107.788 87.293 108.472 84.6718 108.792 82H104.339Z" fill="#923092"/>
</g>
<g id="mainGroup">
<rect id="verticalBar" x="78" y="44" width="4" height="72" fill="black"/>
<path id="outerRing" d="M120 80C120 102.091 102.091 120 80 120C57.9086 120 40 102.091 40 80C40 57.9086 57.9086 40 80 40C102.091 40 120 57.9086 120 80ZM50 80C50 96.5685 63.4315 110 80 110C96.5685 110 110 96.5685 110 80C110 63.4315 96.5685 50 80 50C63.4315 50 50 63.4315 50 80Z" fill="black"/>
</g>
</g>
</svg>
